<?xml version="1.0" encoding="utf-8"?>
<!-- Generator: Adobe Illustrator 19.1.0, SVG Export Plug-In . SVG Version: 6.00 Build 0)  -->
<svg version="1.1" id="Layer_1" xmlns="http://www.w3.org/2000/svg" xmlns:xlink="http://www.w3.org/1999/xlink" x="0px" y="0px"
	 viewBox="0 0 64 64" enable-background="new 0 0 64 64" xml:space="preserve">
<g id="Dolphin_1_">
	<path d="M62.8691788,20.1224499c-1.571312-1.3720989-4.1362114-2.3360004-6.3994102-3.1865997
		c-0.8223-0.3090992-1.8984032-0.7136993-2.4209023-0.9793005c-2.0944977-5.8020992-7.5256004-8.9881001-15.3605995-8.9881001
		c-2.6229973,0-5.4525986,0.3646998-8.2221985,1.0575995c-1.4850998-0.5120997-4.7010994-1.4187994-8.8402996-1.4187994
		c-2.6105881,0-5.1912003,0.3611999-7.6702003,1.0734c-1.4902,0.4283996-3.9842997,1.1452994-3.9790001,3.2610002
		c0.0052004,2.0951996,2.1108999,2.6890993,5.0254002,3.5110998c0.7952118,0.2242994,2.0324993,0.5732994,2.9392109,0.9200001
		c-3.5044107,3.5474005-6.3799105,7.9912004-8.1975107,12.7058992c-1.9621,5.0901012-2.5219002,10.0340023-1.6556997,14.4503994
		c-3.7976003,0.9132004-6.9414005,4.0314026-8.0235004,8.1996994c-0.1921,0.7398033,0.0542,1.5243034,0.6348,2.0215034
		c0.3691,0.3161964,0.8325,0.480999,1.3013,0.480999c0.2683001,0,0.5383-0.0540009,0.7937-0.164402
		c1.2557998-0.5430984,2.8141999-0.8421974,4.3880997-0.8421974c1.0337,0,2.0490999,0.1273994,3.0180998,0.3789978
		c2.9207115,0.7581024,5.1410999,2.5665016,6.2453995,4.0060997c0.3828011,0.4993019,0.9724007,0.7830009,1.5866013,0.7830009
		c0.1320992,0,0.2653999-0.0131989,0.3979988-0.0401001c0.7493-0.1520996,1.3462009-0.717701,1.5381012-1.4576988
		c1.164999-4.4890022-0.4085007-9.1021996-3.7261009-11.652401c4.0027122-5.0770988,11.3337116-11.1787987,16.9641018-14.6884003
		c-0.03339,0.0888004-0.0661011,0.1758995-0.0981026,0.2608013c-0.7477989,1.9894981-1.1989994,3.1902981-0.4218979,4.3125973
		c0.4030991,0.5820999,1.0712967,0.9296036,1.7873001,0.9296036c0.9941978,0,1.8428001-0.6063004,3.156311-1.8005028
		c2.6259995-2.3873997,4.1098862-5.0782986,4.9401855-7.2050991c2.8740005-0.5258999,6.1728134-0.802,9.6189003-0.802
		c2.8152008,0,5.6823997,0.1842003,8.0727005,0.5184994c0.0921021,0.0129013,0.1846008,0.0193005,0.2770996,0.0193005
		c0.1343002,0,0.2686005-0.0135002,0.4006996-0.0405006c2.1355019-0.4365997,2.7734146-1.7106991,2.9633026-2.4312992
		C64.2016678,22.1845493,63.7956657,20.9311504,62.8691788,20.1224499z M60.5390663,23.7873497
		c-2.1931-0.3066998-5.1296005-0.5377998-8.3498001-0.5377998c-3.5667,0-7.4814987,0.2833004-11.1220856,1.0610008
		c-0.5908127,1.8479996-1.9221115,4.8659-4.7825127,7.4662991c-0.9945984,0.9042988-1.5494881,1.280302-1.8107986,1.280302
		c-0.917202,0,1.7866974-4.6321011,1.7680969-7.2710018c0-0.0174007,0-0.0349007,0-0.0524006
		c-0.9664993,0.3800011-1.8829994,0.8136005-2.7327003,1.3052006c-6.6502972,3.8390999-16.2125969,11.8132992-20.1764984,17.8062
		c3.7825003,1.5858994,5.8608999,6.0737,4.6999998,10.5475006c-1.4920006-1.9452019-4.1318998-3.8948021-7.3297997-4.7248993
		c-1.1836004-0.3072014-2.375-0.4431-3.5206003-0.4431c-1.9491882,0-3.7650998,0.3936996-5.1820998,1.0065994
		c1.0813-4.165699,4.6237998-6.9765015,8.3964996-6.9765015c0.0684118,0,0.1362,0.0009995,0.2045994,0.0028
		c-3.1825995-9.6781006,2.4805002-21.9391994,10.1749992-28.824398c0.5559006-3.0254002-14.6627989-3.4175005-6.2682991-5.8302002
		c2.5554008-0.7342997,4.9727001-0.9956999,7.1177006-0.9956999c4.5771999,0,7.9179993,1.1891994,8.7389984,1.5112
		c2.5684147-0.6904001,5.472414-1.1500006,8.3234997-1.1500006c5.9570007,0,11.6823997,2.0066004,13.6289139,8.1073999
		c0.3373871,1.0594006,6.7987862,2.4246998,9.2367859,4.5533009C62.1184654,22.1218491,62.4724655,23.3921509,60.5390663,23.7873497
		z"/>
	<circle cx="45.1809692" cy="14.3762503" r="1.5"/>
</g>
<g>
</g>
<g>
</g>
<g>
</g>
<g>
</g>
<g>
</g>
<g>
</g>
<g>
</g>
<g>
</g>
<g>
</g>
<g>
</g>
<g>
</g>
<g>
</g>
<g>
</g>
<g>
</g>
<g>
</g>
</svg>
