<?xml version="1.0" encoding="iso-8859-1"?>
<!-- Generator: Adobe Illustrator 19.0.0, SVG Export Plug-In . SVG Version: 6.00 Build 0)  -->
<svg version="1.1" id="Layer_1" xmlns="http://www.w3.org/2000/svg" xmlns:xlink="http://www.w3.org/1999/xlink" x="0px" y="0px"
	 viewBox="0 0 511.999 511.999" style="enable-background:new 0 0 511.999 511.999;" xml:space="preserve">
<g>
	<g>
		<path d="M479.327,179.975c-7.647-35.381-23.936-68.9-47.105-96.937C388.612,30.266,324.381,0,255.999,0
			S123.385,30.266,79.777,83.038c-23.17,28.037-39.46,61.556-47.105,96.936c-3.129,14.472,0.413,29.386,9.718,40.92
			c9.318,11.548,23.17,18.171,38.003,18.171h16.85c0.293,33.252,27.423,60.216,60.743,60.216h6.487
			c-1.714,2.986-4.194,5.582-7.195,8.718c-6.976,7.288-15.658,16.36-15.658,33.894c0,17.537,8.683,26.608,15.661,33.896
			c5.896,6.158,9.791,10.227,9.791,19.275c0,9.057-3.896,13.127-9.794,19.289c-6.976,7.288-15.658,16.36-15.658,33.894
			c0,17.544,8.685,26.616,15.662,33.906c5.895,6.159,9.79,10.228,9.79,19.276c0,5.838,4.732,10.57,10.57,10.57
			c5.838,0,10.57-4.732,10.57-10.57c0-17.535-8.681-26.605-15.658-33.894c-5.898-6.161-9.794-10.232-9.794-19.289
			c0-9.048,3.895-13.117,9.789-19.275c6.979-7.29,15.662-16.363,15.662-33.907c0-17.536-8.684-26.607-15.661-33.895
			c-5.896-6.158-9.791-10.227-9.791-19.276c0-9.048,3.895-13.117,9.789-19.275c5.415-5.657,11.839-12.407,14.454-23.337h38.196
			c-1.714,2.986-4.194,5.582-7.195,8.718c-6.976,7.288-15.658,16.36-15.658,33.894c0,17.537,8.683,26.608,15.661,33.896
			c5.896,6.158,9.791,10.227,9.791,19.275c0,9.057-3.896,13.127-9.794,19.289c-6.976,7.288-15.658,16.36-15.658,33.894
			c0,17.544,8.685,26.616,15.662,33.906c5.895,6.159,9.79,10.228,9.79,19.276c0,5.838,4.732,10.57,10.57,10.57
			c5.838,0,10.57-4.732,10.57-10.57c0-17.535-8.681-26.605-15.658-33.894c-5.898-6.161-9.794-10.232-9.794-19.289
			c0-9.048,3.895-13.117,9.789-19.275c6.979-7.29,15.662-16.363,15.662-33.907c0-17.536-8.684-26.607-15.661-33.895
			c-5.896-6.158-9.791-10.227-9.791-19.276c0-9.048,3.895-13.117,9.789-19.275c5.415-5.657,11.839-12.407,14.454-23.337h38.183
			c-1.715,2.986-4.194,5.582-7.195,8.718c-6.976,7.288-15.658,16.36-15.658,33.894c0,17.537,8.684,26.608,15.661,33.896
			c5.896,6.158,9.791,10.227,9.791,19.275c0,9.057-3.896,13.127-9.794,19.289c-6.976,7.288-15.658,16.36-15.658,33.894
			c0,17.544,8.685,26.616,15.662,33.906c5.895,6.159,9.79,10.228,9.79,19.276c0,5.838,4.732,10.57,10.57,10.57
			c5.838,0,10.57-4.732,10.57-10.57c0-17.535-8.681-26.605-15.658-33.894c-5.898-6.161-9.794-10.232-9.794-19.289
			c0-9.048,3.895-13.117,9.789-19.275c6.979-7.29,15.662-16.363,15.662-33.907c0-17.536-8.684-26.607-15.661-33.895
			c-5.896-6.158-9.791-10.227-9.791-19.276c0-9.048,3.895-13.117,9.789-19.275c5.415-5.657,11.839-12.407,14.454-23.337h38.196
			c-1.715,2.986-4.194,5.582-7.195,8.718c-6.976,7.288-15.658,16.36-15.658,33.894c0,17.537,8.683,26.608,15.661,33.896
			c5.896,6.158,9.791,10.227,9.791,19.275c0,9.057-3.896,13.127-9.794,19.289c-6.976,7.288-15.658,16.36-15.658,33.894
			c0,17.544,8.685,26.616,15.662,33.906c5.895,6.159,9.79,10.228,9.79,19.276c0,5.838,4.732,10.57,10.57,10.57
			s10.57-4.732,10.57-10.57c0-17.535-8.681-26.605-15.658-33.894c-5.898-6.161-9.794-10.232-9.794-19.289
			c0-9.048,3.895-13.117,9.789-19.275c6.979-7.29,15.662-16.363,15.662-33.907c0-17.536-8.683-26.607-15.661-33.895
			c-5.896-6.158-9.791-10.227-9.791-19.276c0-9.048,3.895-13.117,9.789-19.275c5.745-6.002,12.635-13.224,14.895-25.376
			c25.799-6.86,44.899-30.305,45.145-58.177h16.85c14.833,0,28.686-6.623,38.003-18.171
			C478.914,209.361,482.456,194.446,479.327,179.975z M354.011,278.141h-54.93h-60.714h-60.725h-19.655
			c-21.665,0-39.323-17.479-39.612-39.075h275.249C393.334,260.663,375.676,278.141,354.011,278.141z M453.155,207.618
			c-5.285,6.55-13.14,10.307-21.551,10.307h-27.407H107.8H80.393c-8.411,0-16.266-3.757-21.551-10.307
			c-5.272-6.535-7.281-14.981-5.508-23.177c6.456-29.875,19.719-58.288,38.484-82.596c15.155,4.111,31.393,7.652,48.382,10.542
			c0.6,0.103,1.197,0.151,1.785,0.151c5.059,0,9.531-3.644,10.408-8.799c0.979-5.755-2.893-11.214-8.648-12.194
			c-12.66-2.154-24.855-4.686-36.461-7.545c38.965-40.135,92.28-62.858,148.714-62.858c56.435,0,109.751,22.724,148.717,62.863
			c-43.965,10.868-94.964,16.589-148.717,16.589c-15.188,0-30.419-0.471-45.271-1.402c-5.823-0.36-10.845,4.062-11.21,9.888
			s4.062,10.845,9.888,11.21c15.289,0.958,30.964,1.443,46.592,1.443c59.685,0,116.246-6.881,164.169-19.903
			c18.771,24.312,32.038,52.73,38.496,82.611C460.436,192.636,458.428,201.083,453.155,207.618z"/>
	</g>
</g>
<g>
	<g>
		<path d="M180.926,96.669c-2.163-0.233-4.316-0.474-6.456-0.725c-5.802-0.686-11.05,3.467-11.731,9.265
			c-0.681,5.798,3.467,11.05,9.265,11.731c2.21,0.26,4.433,0.509,6.668,0.748c0.384,0.041,0.764,0.061,1.141,0.061
			c5.332,0,9.915-4.023,10.497-9.445C190.931,102.501,186.731,97.291,180.926,96.669z"/>
	</g>
</g>
<g>
</g>
<g>
</g>
<g>
</g>
<g>
</g>
<g>
</g>
<g>
</g>
<g>
</g>
<g>
</g>
<g>
</g>
<g>
</g>
<g>
</g>
<g>
</g>
<g>
</g>
<g>
</g>
<g>
</g>
</svg>
