<svg width="54" height="74" viewBox="0 0 54 74" fill="none" xmlns="http://www.w3.org/2000/svg">
<mask id="path-1-inside-1_257_590" fill="white">
<path fill-rule="evenodd" clip-rule="evenodd" d="M28.8084 57.524C32.9953 51.6782 43 37.0094 43 30.3191C43 21.8586 35.8366 15 27 15C18.1634 15 11 21.8586 11 30.3191C11 37.0094 21.0047 51.6782 25.1916 57.524C26.0892 58.7773 27.9108 58.7773 28.8084 57.524ZM27 37.9787C31.4183 37.9787 35 34.5494 35 30.3192C35 26.0889 31.4183 22.6596 27 22.6596C22.5817 22.6596 19 26.0889 19 30.3192C19 34.5494 22.5817 37.9787 27 37.9787Z"/>
</mask>
<path fill-rule="evenodd" clip-rule="evenodd" d="M28.8084 57.524C32.9953 51.6782 43 37.0094 43 30.3191C43 21.8586 35.8366 15 27 15C18.1634 15 11 21.8586 11 30.3191C11 37.0094 21.0047 51.6782 25.1916 57.524C26.0892 58.7773 27.9108 58.7773 28.8084 57.524ZM27 37.9787C31.4183 37.9787 35 34.5494 35 30.3192C35 26.0889 31.4183 22.6596 27 22.6596C22.5817 22.6596 19 26.0889 19 30.3192C19 34.5494 22.5817 37.9787 27 37.9787Z" fill="#FFD43B"/>
<path d="M28.8084 57.524L30.6945 58.8748L30.6945 58.8748L28.8084 57.524ZM25.1916 57.524L27.0776 56.1732L27.0776 56.1732L25.1916 57.524ZM40.6801 30.3191C40.6801 31.5158 40.2056 33.3371 39.23 35.6778C38.2797 37.958 36.9515 40.5062 35.4657 43.0775C32.4962 48.2164 28.9983 53.2749 26.9224 56.1732L30.6945 58.8748C32.8055 55.9273 36.4033 50.7284 39.4829 45.3989C41.0217 42.736 42.4563 39.9973 43.5127 37.4627C44.5438 34.9888 45.3199 32.4676 45.3199 30.3191H40.6801ZM27 17.3199C34.6514 17.3199 40.6801 23.2339 40.6801 30.3191H45.3199C45.3199 20.4834 37.0217 12.6801 27 12.6801V17.3199ZM13.3199 30.3191C13.3199 23.2339 19.3486 17.3199 27 17.3199V12.6801C16.9783 12.6801 8.68015 20.4834 8.68015 30.3191H13.3199ZM27.0776 56.1732C25.0017 53.2749 21.5038 48.2164 18.5343 43.0776C17.0485 40.5062 15.7203 37.958 14.77 35.6778C13.7944 33.3371 13.3199 31.5158 13.3199 30.3191H8.68015C8.68015 32.4676 9.45622 34.9888 10.4873 37.4627C11.5437 39.9973 12.9783 42.736 14.5171 45.3989C17.5967 50.7284 21.1945 55.9273 23.3055 58.8748L27.0776 56.1732ZM26.9224 56.1732C26.9177 56.1798 26.9253 56.1682 26.9472 56.1571C26.9657 56.1478 26.984 56.1442 27 56.1442C27.016 56.1442 27.0343 56.1478 27.0528 56.1571C27.0747 56.1682 27.0823 56.1798 27.0776 56.1732L23.3055 58.8748C25.1286 61.4202 28.8714 61.4202 30.6945 58.8748L26.9224 56.1732ZM32.6801 30.3192C32.6801 33.1742 30.2331 35.6589 27 35.6589V40.2986C32.6034 40.2986 37.3198 35.9247 37.3198 30.3192H32.6801ZM27 24.9794C30.2331 24.9794 32.6801 27.4642 32.6801 30.3192H37.3198C37.3198 24.7136 32.6034 20.3397 27 20.3397V24.9794ZM21.3198 30.3192C21.3198 27.4642 23.7668 24.9794 27 24.9794V20.3397C21.3966 20.3397 16.6801 24.7136 16.6801 30.3192H21.3198ZM27 35.6589C23.7668 35.6589 21.3198 33.1742 21.3198 30.3192H16.6801C16.6801 35.9247 21.3966 40.2986 27 40.2986V35.6589Z" fill="white" mask="url(#path-1-inside-1_257_590)"/>
</svg>
